<svg id="Layer_1" data-name="Layer 1" xmlns="http://www.w3.org/2000/svg" viewBox="0 0 259.56 204.72"><title>Artboard 2</title><path d="M12.14,98.65H24.95c4.62,0,5.35,1.53,5.35,4.53v1.31c0,2.26-1.28,2.88-2.94,3v0c2.21.4,2.74,1.55,2.74,3v4.09h-2v-3.52c0-2.5-1.22-2.81-3.19-2.81H14.31v6.32H12.14Zm12.56,7.92c2.41,0,3.43-.64,3.43-2.32v-1.46c0-1.79-.77-2.37-4-2.37H14.31v6.15Z" style="fill:#8a8a8d"/><path d="M44.78,104.47c0-4,1.37-6,5.71-6h9.22c4.34,0,5.71,1.95,5.71,6v4.38c0,4-1.37,6-5.71,6H50.49c-4.34,0-5.71-1.95-5.71-6Zm18.47-.82c0-2.79-1.68-3.41-3.76-3.41H50.71c-2.08,0-3.76.62-3.76,3.41v6c0,2.79,1.68,3.41,3.76,3.41h8.78c2.08,0,3.76-.62,3.76-3.41Z" style="fill:#8a8a8d"/><path d="M80.34,98.65H94c3.32,0,4.25,1.73,4.25,3.56v1.37c0,1.15-.64,2.32-2.59,2.52v.09c1.7.09,3.21.73,3.21,3.16v1.9c0,2.23-2,3.41-4.65,3.41H80.34Zm15.75,3.45c0-1.46-1.61-1.68-2.28-1.68H82.51v5.11H93.7c1.17,0,2.39-.38,2.39-2Zm.62,7.5c0-2-1.11-2.3-3.07-2.3H82.51v5.59H94c2,0,2.74-.73,2.74-2.14Z" style="fill:#8a8a8d"/><path d="M113.41,104.47c0-4,1.37-6,5.71-6h9.22c4.33,0,5.7,1.95,5.7,6v4.38c0,4-1.37,6-5.7,6h-9.22c-4.34,0-5.71-1.95-5.71-6Zm18.47-.82c0-2.79-1.68-3.41-3.76-3.41h-8.78c-2.08,0-3.76.62-3.76,3.41v6c0,2.79,1.68,3.41,3.76,3.41h8.78c2.08,0,3.76-.62,3.76-3.41Z" style="fill:#8a8a8d"/><path d="M155.31,100.42h-8.09V98.65h18.36v1.77h-8.09v14.24h-2.17Z" style="fill:#8a8a8d"/><path d="M179.24,98.65h2.17v16h-2.17Z" style="fill:#8a8a8d"/><path d="M196.4,104.47c0-4,1.37-6,5.71-6h8.29c3.94,0,5,1.84,5,4v1.37h-1.9v-.73c0-2.72-1.68-2.85-3.67-2.85h-7.52c-2.08,0-3.76.62-3.76,3.41v6c0,2.79,1.68,3.41,3.76,3.41h7.58c2.92,0,3.76-.62,3.76-2.79v-1h2v1.08c0,2.9-.93,4.47-5.42,4.47h-8.18c-4.33,0-5.71-1.95-5.71-6Z" style="fill:#8a8a8d"/><path d="M229.91,109.62h2v1.13c0,1.57.84,2.32,3.54,2.32h6.72c3.14,0,4.07-.66,4.07-3,0-2-.8-2.52-3.49-2.52h-4.11c-6.61,0-8.78-.4-8.78-4.64,0-3.65,2.17-4.47,6.64-4.47h4.67c5.37,0,6.72,1.37,6.72,4.22v.55h-2c0-2.54-.31-3-6-3h-2.3c-4.18,0-5.66.22-5.66,2.85,0,1.9.6,2.54,4,2.54h6.41c4.22,0,6,1.22,6,3.94v1c0,3.94-3.23,4.23-6.44,4.23h-6c-3.16,0-5.95-.55-5.95-4Z" style="fill:#8a8a8d"/><path d="M11.42,132.87c0-4.91,2.76-6.07,7.4-6.07h6.05c7.33,0,8.28,1.58,8.23,6.33H27.95v-.46c0-1.21-.88-1.55-2.41-1.55H19.93c-2.71,0-3.22,1.28-3.22,3.36v1.81c0,2.43.51,3.36,2.94,3.36h5.49c2.32,0,3-.23,3-2.32H33.3v1.58c0,2.83-1,5.05-6.19,5.05h-8.3c-4.64,0-7.4-1.16-7.4-6.07Z" style="fill:#d9272e"/><path d="M36.23,132.87c0-4.91,2.76-6.07,7.4-6.07h8.25c4.64,0,7.39,1.16,7.39,6.07v5c0,4.91-2.76,6.07-7.39,6.07H43.63c-4.64,0-7.4-1.16-7.4-6.07Zm5.29,3.41c0,2.43.51,3.36,2.94,3.36H51c2.43,0,2.94-.93,2.94-3.36v-1.81c0-2.09-.51-3.36-3.22-3.36h-6c-2.71,0-3.22,1.28-3.22,3.36Z" style="fill:#d9272e"/><path d="M62.58,127h7.91l5.82,10.8L82.12,127H90v16.78H85V131.71h0l-6.75,12.06H74.38l-6.75-12.06h0v12.06h-5Z" style="fill:#d9272e"/><path d="M93.7,127h14c4.89,0,6.07,2.46,6.07,5.75v1.44c0,2.5-1.09,5.38-4.73,5.38H98.85v4.22H93.7Zm5.15,8.39h8a1.57,1.57,0,0,0,1.67-1.79v-.65c0-1.14-.56-1.78-2.11-1.78H98.85Z" style="fill:#d9272e"/><path d="M116.78,127h18.36v3.89H121.92v2.69h12.52V137H121.92v2.69h13.51v4H116.78Z" style="fill:#d9272e"/><path d="M137.51,127h19.61v4.17h-7.23v12.61h-5.15V131.15h-7.23Z" style="fill:#d9272e"/><path d="M159.84,127H165v16.78h-5.15Z" style="fill:#d9272e"/><path d="M167.7,127h19.61v4.17h-7.23v12.61h-5.15V131.15H167.7Z" style="fill:#d9272e"/><path d="M190,127h5.15v16.78H190Z" style="fill:#d9272e"/><path d="M198.76,132.87c0-4.91,2.76-6.07,7.4-6.07h8.25c4.64,0,7.39,1.16,7.39,6.07v5c0,4.91-2.76,6.07-7.39,6.07h-8.25c-4.64,0-7.4-1.16-7.4-6.07Zm5.29,3.41c0,2.43.51,3.36,2.94,3.36h6.58c2.43,0,2.94-.93,2.94-3.36v-1.81c0-2.09-.51-3.36-3.22-3.36h-6c-2.71,0-3.22,1.28-3.22,3.36Z" style="fill:#d9272e"/><path d="M225.1,127h8l9.67,12.19h0V127h5.15v16.78h-8l-9.67-12.19h0v12.19H225.1Z" style="fill:#d9272e"/><path d="M226.28,42.1a.87.87,0,0,0-.5.16l-20.57,14.3-20.67-14.3a.88.88,0,0,0-.5-.15H165.89a.87.87,0,0,0-.83.61.9.9,0,0,0,0,.26.87.87,0,0,0,.38.72l29.43,19.92L162.9,85a.87.87,0,0,0-.39.72.8.8,0,0,0,0,.25.86.86,0,0,0,.83.62h18.56a.85.85,0,0,0,.49-.16l22.78-15.77,22.58,15.77a.86.86,0,0,0,.5.16h18.26a.87.87,0,0,0,.83-.61.83.83,0,0,0,0-.26A.87.87,0,0,0,247,85L215.3,63.61l29.53-19.92a.87.87,0,0,0,.38-.72.92.92,0,0,0,0-.25.87.87,0,0,0-.83-.62Z" style="fill:#8a8a8d"/><path d="M83.51,42.1a.87.87,0,0,0-.67.32L55.63,75.7,28.91,42.43a.87.87,0,0,0-.68-.33H13a.87.87,0,0,0-.67,1.42L47.52,86.28a.87.87,0,0,0,.67.32H63a.86.86,0,0,0,.67-.31L99.43,43.53a.87.87,0,0,0-.67-1.43Z" style="fill:#8a8a8d"/><path d="M107.61,42.09A25.67,25.67,0,0,1,104.8,30c0-9.74,4.88-17.92,10.82-17.92H153.2c2,0,3.65,2.73,3.65,6s-1.65,6-3.65,6H115.62c-2,0-3.53,2.73-3.53,5.84s1.42,6.13,3.53,6.13H153.2c2,0,3.65,2.68,3.65,5.95h0c0,3.26-1.65,5.95-3.65,5.95H115.62c-2.11,0-3.53,3-3.53,6.13S113.62,60,115.62,60H153.2c2,0,3.65,2.73,3.65,6s-1.65,6-3.65,6H115.62c-5.94,0-10.82-8.18-10.82-17.92a25.68,25.68,0,0,1,2.81-12.07Z" style="fill:#d9272e"/><path d="M244.49,74.32a3,3,0,0,1,1.44.38A2.71,2.71,0,0,1,247,75.78a3,3,0,0,1,.39,1.47,3,3,0,0,1-.39,1.45A2.7,2.7,0,0,1,246,79.79a2.93,2.93,0,0,1-2.92,0A2.72,2.72,0,0,1,242,78.71a2.93,2.93,0,0,1,0-2.93,2.72,2.72,0,0,1,1.1-1.08A3,3,0,0,1,244.49,74.32Zm0,.48a2.5,2.5,0,0,0-1.2.32,2.27,2.27,0,0,0-.91.9,2.44,2.44,0,0,0,0,2.44,2.32,2.32,0,0,0,.91.9,2.44,2.44,0,0,0,2.43,0,2.29,2.29,0,0,0,.9-.9,2.45,2.45,0,0,0,0-2.44,2.25,2.25,0,0,0-.91-.9A2.5,2.5,0,0,0,244.49,74.81Zm-1.29,4.07V75.72h1.08a2.67,2.67,0,0,1,.8.09.78.78,0,0,1,.4.31.81.81,0,0,1,.15.46.84.84,0,0,1-.25.6,1,1,0,0,1-.65.29.87.87,0,0,1,.27.17,3.53,3.53,0,0,1,.47.63l.38.62h-.62l-.28-.5a2.54,2.54,0,0,0-.53-.73.64.64,0,0,0-.41-.11h-.3v1.34Zm.51-1.78h.62a1,1,0,0,0,.6-.13.46.46,0,0,0,.08-.6.46.46,0,0,0-.22-.17,1.6,1.6,0,0,0-.51-.05h-.58Z" style="fill:#8a8a8d"/><rect x="12.2" y="12.1" width="235.8" height="74.49" style="fill:none"/><path d="M27.68,167.15h4.26v14H27.68Z" style="fill:#8a8a8d"/><path d="M38.38,167.15h6.78l8.48,10.65-.1-10.65h4v14H50.73l-8.36-10.54.1,10.54H38.38Z" style="fill:#8a8a8d"/><path d="M77.32,170.61H71.08v-3.46H87.82v3.46H81.58v10.54H77.32Z" style="fill:#8a8a8d"/><path d="M92.54,167.15h4.26v5.19h9.7v-5.19h4.26v14h-4.26V175.8h-9.7v5.35H92.54Z" style="fill:#8a8a8d"/><path d="M131.91,167.15v3.17H120.6v2.41h10.67v2.77H120.6V178h11.46v3.17H116.4v-14Z" style="fill:#8a8a8d"/><path d="M145.71,177.94l10.58-7.62H146v-3.17h16.54v3.21L151.83,178H162.7v3.17h-17Z" style="fill:#8a8a8d"/><path d="M183,167.21a3.84,3.84,0,0,1,3.51,3.76,28.8,28.8,0,0,1,.13,3.4c0,3.38-.36,4.75-1.55,5.73-.84.71-2,1-4.05,1.13-.76,0-2.62.06-4,.06a39.08,39.08,0,0,1-5.88-.23,3.68,3.68,0,0,1-3-1.89c-.55-1-.67-2.06-.67-5.12a13.24,13.24,0,0,1,.29-3.88,3.58,3.58,0,0,1,2.79-2.75c1.18-.34,2.46-.42,6.15-.42A42,42,0,0,1,183,167.21Zm-10.46,3.72c-.57.44-.74,1.13-.74,3.15s.17,2.81.69,3.25,1.26.55,4.47.55c3.67,0,4.43-.13,4.91-.8.4-.5.5-1.22.5-3.09,0-3.53-.06-3.57-5.31-3.57C174,170.42,173.12,170.53,172.57,170.93Z" style="fill:#8a8a8d"/><path d="M192,167.15h6.78l8.48,10.65-.1-10.65h4v14h-6.85L196,170.61l.1,10.54H192Z" style="fill:#8a8a8d"/><path d="M232.4,167.15v3.17H221.08v2.41h10.67v2.77H221.08V178h11.46v3.17H216.88v-14Z" style="fill:#8a8a8d"/><path d="M238.38,155.83H21.8a9.09,9.09,0,0,0-9.09,9.09v9.3h0v9.3a9.09,9.09,0,0,0,9.09,9.09H238.38a9.09,9.09,0,0,0,9.08-9.09v-9.3h0v-9.3A9.09,9.09,0,0,0,238.38,155.83Zm-6.17,35.26H28A9.09,9.09,0,0,1,18.88,182V166.43A9.09,9.09,0,0,1,28,157.34H232.21a9.09,9.09,0,0,1,9.09,9.09V182A9.09,9.09,0,0,1,232.21,191.09Z" style="fill:#8a8a8d"/><rect width="259.56" height="204.72" style="fill:none"/></svg>