<svg id="Layer_2" data-name="Layer 2" xmlns="http://www.w3.org/2000/svg" viewBox="0 0 774.02 195.79"><defs><style>.cls-1{fill:#e32525;}.cls-2{fill:#17468e;}.cls-3{fill:none;}.cls-4{fill:#00b4e5;}</style></defs><title>workforce</title><polygon class="cls-1" points="374.02 126.37 337.9 97.11 348.69 126.37 374.02 126.37"/><g id="Layer_3" data-name="Layer 3"><path class="cls-1" d="M795,77.66a31.47,31.47,0,0,1,10.47,11,55.18,55.18,0,0,1,6.07,16.24,94.17,94.17,0,0,1,2,19.84,119.28,119.28,0,0,1-.73,13,125.24,125.24,0,0,1-6,27.53,77.45,77.45,0,0,1-10.57,20.78,45.61,45.61,0,0,1-14,12.83,32.13,32.13,0,0,1-16.07,4.36q-15.6,0-24.44-13.17T733,153a133.76,133.76,0,0,1,.94-15.56,113.94,113.94,0,0,1,5.6-26.16A77.79,77.79,0,0,1,749.82,91a45.33,45.33,0,0,1,13.92-12.91,32.5,32.5,0,0,1,16.43-4.45A27.32,27.32,0,0,1,795,77.66Zm-25.49,29.07a24.13,24.13,0,0,0-5.39,8,60.1,60.1,0,0,0-3.56,10.86,111.16,111.16,0,0,0-2.09,12.23,114.78,114.78,0,0,0-.63,11.63q0,10.6,2.67,17.19t8.95,6.58q7.64,0,12.25-9.58t6.38-25.82a83.1,83.1,0,0,0,.63-10.09q0-10.6-2.88-17.27t-9.16-6.67A10.23,10.23,0,0,0,769.55,106.73Z" transform="translate(-281.73 -73.64)"/><path class="cls-1" d="M845.9,157.09,841.29,200h-24.7L829.88,76.89h35.59q16.22,0,23.18,6.33t7,20.18a79.6,79.6,0,0,1-.52,8.55,56.79,56.79,0,0,1-5.29,19.15q-4,8-10.62,10.94a23.51,23.51,0,0,1,7.75,7.18q2.3,3.76,2.3,13.17a108.8,108.8,0,0,1-.84,12.31q-.21,2.4-.42,4.27-1.15,10.61-1.15,13.17,0,4.1,1.88,4.1l-.42,3.76h-25v-1.2q-.11-1.37-.1-2.22,0-6.84,1.15-18.13a83.12,83.12,0,0,0,.73-9.58q0-6.5-2.51-9.15t-9.11-2.65Zm2.93-27h9.73q6,0,9.16-2.74t3.82-8.89a11.78,11.78,0,0,1,.11-1.37c.07-.68.1-1.08.1-1.2q0-5.13-2.36-7.7a8.3,8.3,0,0,0-6.44-2.56H851.44Z" transform="translate(-281.73 -73.64)"/><path class="cls-1" d="M954.22,123.91v-2.56q0-8.38-2.93-13a9.36,9.36,0,0,0-8.37-4.62q-6.59,0-11.25,9.15t-6.54,26.76q-.73,7.35-.73,12.82,0,9.58,2.72,15.13t9.31,5.56q5.65,0,9.37-5.64t5.5-15.22h23.76q-4.19,23.77-15.33,37.36t-26.11,13.59q-16.12,0-25-13.25t-8.84-36.68a142,142,0,0,1,.84-15,121,121,0,0,1,5.7-26.68,80.88,80.88,0,0,1,10.21-20.52,46,46,0,0,1,13.4-13,28.87,28.87,0,0,1,15.18-4.45q16.12,0,24.39,11.71t8.27,33.26q0,.69-.1,2.56v2.74Z" transform="translate(-281.73 -73.64)"/><path class="cls-1" d="M981,200,994.31,76.89h61.44l-3.14,28.73h-36.74L1014,123.23h31.08L1042,152H1011l-2.09,19.32h38.2L1043.92,200Z" transform="translate(-281.73 -73.64)"/></g><path class="cls-1" d="M639.23,200" transform="translate(-281.73 -73.64)"/><polygon class="cls-1" points="403.93 126.37 375.77 126.37 368.77 80.86 407.02 52.61 364.27 52.61 359.05 3.25 392.52 3.25 408.77 49.61 401.02 111.36 403.93 126.37"/><polygon class="cls-1" points="447.99 31.98 451.13 3.25 392.52 3.25 387.19 52.61 407.02 52.61 385.47 68.52 379.23 126.37 403.93 126.37 408.64 83.11 435.64 83.11 438.68 54.38 411.67 54.38 414.08 31.98 447.99 31.98"/><polygon class="cls-2" points="326.27 66.48 359.05 3.25 336.4 15.11 308.77 57.61 326.27 66.48"/><path class="cls-3" d="M517.69,168.89q0-6.5-2.51-9.15t-9.11-2.65h-7.54l-1.73,16.16,20.8-1.6C517.66,170.63,517.69,169.71,517.69,168.89Z" transform="translate(-281.73 -73.64)"/><path class="cls-3" d="M394.45,190.09a41.2,41.2,0,0,1-3.21-5.78c-11.45,1.26-22.22,2.6-31.89,4l-3,11.69H332l-.09-6.75c-9,2.12-15.2,4.37-17.39,6.75,0,0,38.17.75,96.43,2.28Q400.92,199.7,394.45,190.09Z" transform="translate(-281.73 -73.64)"/><path class="cls-3" d="M331.08,128.53h-.21L317,189.39c4.57-.55,9.55-1.11,14.89-1.69Z" transform="translate(-281.73 -73.64)"/><path class="cls-3" d="M520.36,127.33q3.19-2.73,3.82-8.89a11.74,11.74,0,0,1,.1-1.37c.07-.68.1-1.08.1-1.2q0-5.13-2.35-7.7a8.3,8.3,0,0,0-6.44-2.56H504.09l-2.62,24.45h9.73Q517.17,130.07,520.36,127.33Z" transform="translate(-281.73 -73.64)"/><path class="cls-3" d="M429.36,103.74a10.23,10.23,0,0,0-7.17,3,24.11,24.11,0,0,0-5.39,8,60,60,0,0,0-3.56,10.86,111,111,0,0,0-2.09,12.23,114.78,114.78,0,0,0-.63,11.63q0,10.6,2.67,17.19t8.95,6.58q7.64,0,12.25-9.58t6.38-25.82a82.91,82.91,0,0,0,.63-10.09q0-10.6-2.88-17.27T429.36,103.74Z" transform="translate(-281.73 -73.64)"/><path class="cls-2" d="M317,189.39l13.9-60.85h.21l.78,59.17c8.64-.93,18.2-1.9,28.39-2.87L388.33,76.89H364.47L347.82,153h-.21l-.84-76.1H326.37L309.2,153H309l-.31-76.1H284.82L290,193.51h0C294.7,192.32,304.19,190.92,317,189.39Z" transform="translate(-281.73 -73.64)"/><path class="cls-2" d="M356.3,200l3-11.69c-10.68,1.56-20,3.21-27.41,4.95L332,200Z" transform="translate(-281.73 -73.64)"/><path class="cls-2" d="M459.5,165.3a125.32,125.32,0,0,0,6-27.53,119.27,119.27,0,0,0,.73-13,94.21,94.21,0,0,0-2-19.84,55.19,55.19,0,0,0-6.07-16.24,31.47,31.47,0,0,0-10.47-11,27.32,27.32,0,0,0-14.86-4,32.5,32.5,0,0,0-16.43,4.45A45.33,45.33,0,0,0,402.46,91a77.79,77.79,0,0,0-10.31,20.26,113.89,113.89,0,0,0-5.6,26.16,133.76,133.76,0,0,0-.94,15.56q0,17.38,4.67,29.07c20.85-1.86,43-3.72,64.47-5.47A91.44,91.44,0,0,0,459.5,165.3Zm-18.74-27.53Q439,154,434.38,163.59t-12.25,9.58q-6.28,0-8.95-6.58t-2.67-17.19a114.78,114.78,0,0,1,.63-11.63,111,111,0,0,1,2.09-12.23,60,60,0,0,1,3.56-10.86,24.11,24.11,0,0,1,5.39-8,10.23,10.23,0,0,1,7.17-3q6.28,0,9.16,6.67t2.88,17.27A82.91,82.91,0,0,1,440.77,137.77Z" transform="translate(-281.73 -73.64)"/><path class="cls-2" d="M394.45,190.09q6.46,9.62,16.52,12.2l14,.37a33.26,33.26,0,0,0,10-3.76,45.62,45.62,0,0,0,14-12.83,64.29,64.29,0,0,0,4.76-7.51c-21.31,1.67-42.86,3.59-62.45,5.75A41.2,41.2,0,0,0,394.45,190.09Z" transform="translate(-281.73 -73.64)"/><path class="cls-2" d="M517,178.46q-1.15,11.29-1.15,18.13,0,.86.1,2.22V200h25l.42-3.76q-1.88,0-1.88-4.1,0-2.56,1.15-13.17.21-1.88.42-4.27c.08-.67.15-1.32.22-2-7.25.41-15.26.87-23.83,1.4C517.3,175.46,517.15,176.9,517,178.46Z" transform="translate(-281.73 -73.64)"/><path class="cls-2" d="M469.23,200h24.7l2.63-24.54c-8.06.53-16.39,1.11-24.87,1.73Z" transform="translate(-281.73 -73.64)"/><path class="cls-2" d="M498.54,157.09h7.54q6.59,0,9.11,2.65t2.51,9.15c0,.82,0,1.74-.09,2.75l23.92-1.81q.35-4.14.35-7.44,0-9.4-2.3-13.17a23.52,23.52,0,0,0-7.75-7.18q6.59-2.91,10.62-10.94a56.78,56.78,0,0,0,5.29-19.15,79.73,79.73,0,0,0,.52-8.55q0-13.85-7-20.18t-23.18-6.33H482.53l-10.61,98.32,24.89-2Zm5.55-51.47H515.6a8.3,8.3,0,0,1,6.44,2.56q2.36,2.56,2.35,7.7c0,.11,0,.51-.1,1.2a11.74,11.74,0,0,0-.1,1.37q-.63,6.16-3.82,8.89t-9.16,2.74h-9.73Z" transform="translate(-281.73 -73.64)"/><path class="cls-2" d="M580,170.75s-9.46.42-24.82,1.24l-3,28h24.7L581,161l7-10.09L600.8,200h29.62l-22.19-76.78,32.55-46.34h-29l-26,39.84,4.29-39.84h-24.7L555.5,168.8c15.31-1.13,24.63-1.8,24.63-1.8Z" transform="translate(-281.73 -73.64)"/><path class="cls-4" d="M331.93,193.26c7.4-1.74,16.73-3.39,27.41-4.95l.91-3.49c-10.2,1-19.75,1.94-28.39,2.87Z" transform="translate(-281.73 -73.64)"/><path class="cls-4" d="M314.54,200,317,189.39c-12.78,1.53-22.27,2.93-27,4.11h0l.29,6.5Z" transform="translate(-281.73 -73.64)"/><path class="cls-4" d="M418.89,203.26a31.25,31.25,0,0,0,6.08-.6l-14-.37A31.59,31.59,0,0,0,418.89,203.26Z" transform="translate(-281.73 -73.64)"/><path class="cls-4" d="M453.69,178.56c.35-.65.71-1.3,1-2-21.5,1.75-43.62,3.6-64.47,5.47q.46,1.15,1,2.26C410.83,182.15,432.38,180.23,453.69,178.56Z" transform="translate(-281.73 -73.64)"/><path class="cls-4" d="M496.57,175.47l.24-2.23-24.89,2-.22,2C480.18,176.58,488.51,176,496.57,175.47Z" transform="translate(-281.73 -73.64)"/><path class="cls-4" d="M517.42,174.15c8.56-.52,16.58-1,23.83-1.4q.16-1.51.27-2.91l-23.92,1.81C517.56,172.42,517.5,173.25,517.42,174.15Z" transform="translate(-281.73 -73.64)"/><path class="cls-4" d="M580,170.75l.15-3.75s-9.32.66-24.63,1.8l-.34,3.19C570.51,171.17,580,170.75,580,170.75Z" transform="translate(-281.73 -73.64)"/><path class="cls-2" d="M306.68,241.37q0-.62-1-.89a9.86,9.86,0,0,0-2.41-.24q-3.06,0-3.35.75V241l0,.07q0,.46,1.25.7t4,.56q2.29.27,3.74.48a24.32,24.32,0,0,1,2.84.58,7.32,7.32,0,0,1,2.25,1,1.58,1.58,0,0,1,.69,2.11q-.86,2.23-5.07,3.37A40.38,40.38,0,0,1,299.08,251a34.39,34.39,0,0,1-4.78-.3,18.42,18.42,0,0,1-3.6-.83,6.74,6.74,0,0,1-2.25-1.23,2,2,0,0,1-.78-1.52,1.77,1.77,0,0,1,.08-.51H297q0,.69,1.19,1a8.68,8.68,0,0,0,2.62.33,14.71,14.71,0,0,0,3-.26q1.18-.25,1.35-.71a.1.1,0,0,1,0-.07v-.05q0-.46-1.23-.69t-3.88-.55q-2.29-.25-3.76-.46a23.83,23.83,0,0,1-2.88-.59,7.28,7.28,0,0,1-2.27-1,1.76,1.76,0,0,1-.86-1.48,2,2,0,0,1,.16-.75q.78-2,4.72-3.11a36.92,36.92,0,0,1,9.66-1.09,36,36,0,0,1,5,.3,14,14,0,0,1,3.41.86,4.87,4.87,0,0,1,1.92,1.31,2.62,2.62,0,0,1,.61,1.69Z" transform="translate(-281.73 -73.64)"/><path class="cls-2" d="M342.43,237.64a16.22,16.22,0,0,1,4.09,1.18,6.44,6.44,0,0,1,2.37,1.73,3.36,3.36,0,0,1,.78,2.12,3.71,3.71,0,0,1-.29,1.39,7.19,7.19,0,0,1-2.33,2.94,15.12,15.12,0,0,1-4.13,2.22,28.4,28.4,0,0,1-5.46,1.37,41,41,0,0,1-6.27.46,26,26,0,0,1-9.54-1.4q-3.45-1.4-3.45-4a4.2,4.2,0,0,1,.37-1.66,6.45,6.45,0,0,1,2.19-2.79,15.14,15.14,0,0,1,4-2.16,27.81,27.81,0,0,1,5.43-1.38,41.38,41.38,0,0,1,6.42-.47A34.68,34.68,0,0,1,342.43,237.64Zm-10,3.1a7.6,7.6,0,0,0-2.1.85,5.71,5.71,0,0,0-1.39,1.16,5.1,5.1,0,0,0-.82,1.3,3.55,3.55,0,0,0-.25,1.24,2.13,2.13,0,0,0,1,1.83,6.5,6.5,0,0,0,3.49.7,9.66,9.66,0,0,0,4.78-1,5.48,5.48,0,0,0,2.49-2.75A2.62,2.62,0,0,0,340,243a2.12,2.12,0,0,0-1.12-1.84,6.89,6.89,0,0,0-3.58-.71A11.29,11.29,0,0,0,332.48,240.74Z" transform="translate(-281.73 -73.64)"/><path class="cls-2" d="M351.46,250.69l5.19-13.13h9.64l-4,10.07h13.24l-1.23,3.06Z" transform="translate(-281.73 -73.64)"/><path class="cls-2" d="M383.67,237.55h9.64l-3.11,7.86a2.71,2.71,0,0,0-.2.91,1.21,1.21,0,0,0,.84,1.1,7.73,7.73,0,0,0,3,.39,8.64,8.64,0,0,0,3.72-.63,3.34,3.34,0,0,0,1.72-1.78l3.11-7.86H412L409,245a8.14,8.14,0,0,1-5.21,4.61q-4,1.45-11.3,1.45a31.41,31.41,0,0,1-9.13-1q-3-1-3-3.29a5.16,5.16,0,0,1,.37-1.79Z" transform="translate(-281.73 -73.64)"/><path class="cls-2" d="M416.11,237.55h27L441.73,241h-8.66l-3.84,9.68h-9.64l3.84-9.68h-8.66Z" transform="translate(-281.73 -73.64)"/><path class="cls-2" d="M442.26,250.69l5.19-13.13h9.64l-5.19,13.13Z" transform="translate(-281.73 -73.64)"/><path class="cls-2" d="M483.17,237.64a16.22,16.22,0,0,1,4.09,1.18,6.44,6.44,0,0,1,2.37,1.73,3.36,3.36,0,0,1,.78,2.12,3.71,3.71,0,0,1-.29,1.39,7.19,7.19,0,0,1-2.33,2.94,15.12,15.12,0,0,1-4.13,2.22,28.4,28.4,0,0,1-5.46,1.37,41,41,0,0,1-6.27.46,26,26,0,0,1-9.54-1.4q-3.45-1.4-3.45-4a4.2,4.2,0,0,1,.37-1.66,6.45,6.45,0,0,1,2.19-2.79,15.14,15.14,0,0,1,4-2.16,27.81,27.81,0,0,1,5.43-1.38,41.38,41.38,0,0,1,6.42-.47A34.68,34.68,0,0,1,483.17,237.64Zm-10,3.1a7.6,7.6,0,0,0-2.1.85,5.71,5.71,0,0,0-1.39,1.16,5.1,5.1,0,0,0-.82,1.3,3.55,3.55,0,0,0-.25,1.24,2.13,2.13,0,0,0,1,1.83,6.5,6.5,0,0,0,3.49.7,9.66,9.66,0,0,0,4.78-1,5.48,5.48,0,0,0,2.49-2.75,2.62,2.62,0,0,0,.25-1.08,2.12,2.12,0,0,0-1.12-1.84,6.89,6.89,0,0,0-3.58-.71A11.29,11.29,0,0,0,473.22,240.74Z" transform="translate(-281.73 -73.64)"/><path class="cls-2" d="M513.82,244.72l.82-3,1.63-4.18h9.24l-5.19,13.13h-9l-7.68-7.15-.82,3-1.63,4.16h-9.24l5.19-13.13h9Z" transform="translate(-281.73 -73.64)"/><path class="cls-2" d="M545,241.37q0-.62-1-.89a9.86,9.86,0,0,0-2.41-.24q-3.06,0-3.35.75V241l0,.07q0,.46,1.25.7t4,.56q2.29.27,3.74.48a24.32,24.32,0,0,1,2.84.58,7.32,7.32,0,0,1,2.25,1,1.58,1.58,0,0,1,.69,2.11q-.86,2.23-5.07,3.37A40.38,40.38,0,0,1,537.4,251a34.39,34.39,0,0,1-4.78-.3,18.42,18.42,0,0,1-3.6-.83,6.74,6.74,0,0,1-2.25-1.23,2,2,0,0,1-.78-1.52,1.77,1.77,0,0,1,.08-.51h9.24q0,.69,1.19,1a8.68,8.68,0,0,0,2.62.33,14.71,14.71,0,0,0,3-.26q1.18-.25,1.35-.71a.1.1,0,0,1,0-.07v-.05q0-.46-1.23-.69t-3.88-.55q-2.29-.25-3.76-.46a23.83,23.83,0,0,1-2.88-.59,7.28,7.28,0,0,1-2.27-1,1.76,1.76,0,0,1-.86-1.48,2,2,0,0,1,.16-.75q.78-2,4.72-3.11a36.92,36.92,0,0,1,9.66-1.09,36,36,0,0,1,5,.3,14,14,0,0,1,3.41.86,4.87,4.87,0,0,1,1.92,1.31,2.62,2.62,0,0,1,.61,1.69Z" transform="translate(-281.73 -73.64)"/><path class="cls-4" d="M672,241.13a6.89,6.89,0,0,0-3.58-.71,11.29,11.29,0,0,0-2.8.32,7.6,7.6,0,0,0-2.1.85,5.71,5.71,0,0,0-1.39,1.16,5.1,5.1,0,0,0-.82,1.3,3.56,3.56,0,0,0-.25,1.24,2.13,2.13,0,0,0,1,1.83,6.51,6.51,0,0,0,3.49.7,9.66,9.66,0,0,0,4.78-1,5.48,5.48,0,0,0,2.49-2.75,2.61,2.61,0,0,0,.25-1.08A2.12,2.12,0,0,0,672,241.13Z" transform="translate(-281.73 -73.64)"/><path class="cls-4" d="M704.58,240.89a9.16,9.16,0,0,0-2.51-.27h-4.5l-1,2.61h3.8a16.68,16.68,0,0,0,3.58-.29q1.25-.29,1.49-.95a.39.39,0,0,1,0-.15.69.69,0,0,0,0-.13Q705.5,241.17,704.58,240.89Z" transform="translate(-281.73 -73.64)"/><path class="cls-4" d="M736,241.08a16.57,16.57,0,0,0-4.68-.46h-1.84l-2.74,7h2a14.76,14.76,0,0,0,5.52-.86,4.84,4.84,0,0,0,2.82-2.68,4.05,4.05,0,0,0,.29-1.35Q737.46,241.55,736,241.08Z" transform="translate(-281.73 -73.64)"/><path class="cls-4" d="M797.67,240.89a9.15,9.15,0,0,0-2.51-.27h-4.5l-1,2.61h3.8a16.7,16.7,0,0,0,3.58-.29q1.25-.29,1.49-.95a.39.39,0,0,1,0-.15.79.79,0,0,0,0-.13Q798.59,241.17,797.67,240.89Z" transform="translate(-281.73 -73.64)"/><path class="cls-4" d="M829.26,241.17a3.79,3.79,0,0,0-1.12-.35,13.66,13.66,0,0,0-1.45-.17q-.76,0-1.66,0h-2.74l-1.14,2.92h4a10.28,10.28,0,0,0,3-.37,2.18,2.18,0,0,0,1.51-1.17.27.27,0,0,1,0-.13v-.13A.67.67,0,0,0,829.26,241.17Z" transform="translate(-281.73 -73.64)"/><path class="cls-4" d="M637.18,245.37a28.5,28.5,0,0,0-3.72-.17h-3.06l-.94,2.43h4.21a15.3,15.3,0,0,0,3.19-.26q1.19-.27,1.43-.94a.3.3,0,0,1,0-.15.74.74,0,0,0,0-.13Q638.36,245.54,637.18,245.37Z" transform="translate(-281.73 -73.64)"/><path class="cls-4" d="M638.28,240.75a20.9,20.9,0,0,0-2.7-.13h-3.39l-.86,2.19h4a9.12,9.12,0,0,0,2.53-.3q1-.3,1.23-.85a.38.38,0,0,1,0-.15.5.5,0,0,0,0-.11Q639.18,240.87,638.28,240.75Z" transform="translate(-281.73 -73.64)"/><path class="cls-4" d="M425,202.66a31.25,31.25,0,0,1-6.08.6,31.59,31.59,0,0,1-7.92-1c-58.26-1.53-96.43-2.28-96.43-2.28H290.26l-.29-6.5c-70.36,31.49,333,31,325.67,44s-106.89,28.83-106.89,28.83C964.12,280.58,994.33,241,994.33,241,975.47,220.17,612.64,207.73,425,202.66Zm223.44,38.19a3.54,3.54,0,0,1-1.76,1.67,14.06,14.06,0,0,1-3.23,1.2,7,7,0,0,1,2.88.85,1.79,1.79,0,0,1,1,1.5,1.55,1.55,0,0,1-.16.66q-.82,2.1-4.47,3a41,41,0,0,1-9.75.93H618.58l5.19-13.13h14.06q2.37,0,4.29.13a24.78,24.78,0,0,1,3.37.43,6.62,6.62,0,0,1,2.25.82,1.5,1.5,0,0,1,.8,1.27A2,2,0,0,1,648.41,240.86ZM682.49,244a7.19,7.19,0,0,1-2.33,2.94A15.13,15.13,0,0,1,676,249.2a28.4,28.4,0,0,1-5.46,1.37,41,41,0,0,1-6.27.46,26,26,0,0,1-9.54-1.4q-3.45-1.4-3.45-4a4.2,4.2,0,0,1,.37-1.66,6.45,6.45,0,0,1,2.19-2.79,15.15,15.15,0,0,1,4-2.16,27.83,27.83,0,0,1,5.43-1.38,41.39,41.39,0,0,1,6.42-.47,34.68,34.68,0,0,1,5.8.43,16.22,16.22,0,0,1,4.09,1.18,6.45,6.45,0,0,1,2.37,1.73,3.36,3.36,0,0,1,.78,2.12A3.71,3.71,0,0,1,682.49,244Zm32.12-2.75a4.33,4.33,0,0,1-2.06,2,11.64,11.64,0,0,1-4.15,1.17,14,14,0,0,1,3,.77,1.42,1.42,0,0,1,.9,1.4A3.48,3.48,0,0,1,712,248c-.06.17-.11.32-.16.46a5.85,5.85,0,0,0-.45,1.4q0,.44.74.44l-.16.4h-9.77v-.13a.91.91,0,0,1,0-.24,5.88,5.88,0,0,1,.45-1.93,2.7,2.7,0,0,0,.29-1q0-.69-1-1a14.88,14.88,0,0,0-3.56-.28h-2.94l-1.8,4.58H684l5.19-13.13H703a42.23,42.23,0,0,1,9.05.67q2.72.68,2.72,2.15A2.51,2.51,0,0,1,714.61,241.29Zm32.28,2.55a7.33,7.33,0,0,1-2.31,3.13,13.08,13.08,0,0,1-4,2.13,26.87,26.87,0,0,1-5.37,1.2,52.84,52.84,0,0,1-6.64.38H715.92l5.19-13.13H734a31.52,31.52,0,0,1,9.77,1.18q3.43,1.18,3.43,3.57A4.2,4.2,0,0,1,746.9,243.85Zm26.28-1.35L772,245.56H759.85l-.82,2.06h14.92l-1.23,3.06H748.16l5.19-13.13h24l-1.23,3.06H761.77L761,242.5Zm34.53-1.2a4.33,4.33,0,0,1-2.06,2,11.64,11.64,0,0,1-4.15,1.17,14,14,0,0,1,3,.77,1.42,1.42,0,0,1,.9,1.4,3.46,3.46,0,0,1-.33,1.31q-.08.25-.16.46a5.82,5.82,0,0,0-.45,1.4q0,.44.74.44l-.16.4h-9.77v-.13a.91.91,0,0,1,0-.24,5.86,5.86,0,0,1,.45-1.93,2.71,2.71,0,0,0,.29-1q0-.69-1-1a14.87,14.87,0,0,0-3.55-.28H788.5l-1.8,4.58h-9.64l5.19-13.13h13.89a42.24,42.24,0,0,1,9.05.67q2.72.68,2.72,2.15A2.51,2.51,0,0,1,807.7,241.29Zm26.79,4.09a30.57,30.57,0,0,1-9.67,1.21H820l-1.63,4.08h-9.64l5.19-13.13h14.18a27.69,27.69,0,0,1,8.23.92q2.76.92,2.76,2.6a2.31,2.31,0,0,1-.2.91Q838,244.18,834.49,245.39Zm27.36,5.3H839l5.19-13.13h9.64l-4,10.07h13.24Zm28.93,0H866.22l5.19-13.13h24l-1.23,3.06H879.83l-.74,1.88h12.14L890,245.56H877.91l-.82,2.06H892Zm33.3,0H913.25L910,247l-6.21,3.68H892.94l13.12-6.82-6.91-6.31H910l2.86,3.36,5.52-3.36h10.83l-12.42,6.31Z" transform="translate(-281.73 -73.64)"/></svg>